# Blender v3.6.0 OBJ File: ''
# www.blender.org
mtllib srf05.mtl
o srf05
v 0.000000 -0.009379 -0.007930
v -0.012118 -0.010408 -0.008184
v -0.012116 -0.005832 -0.006021
v 0.000000 -0.005873 -0.006004
v -0.000005 -0.003202 -0.001575
v -0.012132 -0.002943 0.000121
v 0.000001 -0.005739 0.006321
v -0.012116 -0.005707 0.005865
v -0.012116 -0.009001 0.007780
v -0.000001 -0.013488 0.008165
v -0.012120 -0.015142 0.007565
v 0.000000 -0.018262 0.004500
v -0.012116 -0.019426 0.002156
v 0.000000 -0.019571 0.000809
v -0.012116 -0.019140 -0.002734
v -0.000127 -0.018693 -0.003975
v -0.012121 -0.016343 -0.006650
v 0.000000 -0.014301 -0.007767
v 0.000108 0.003458 0.002515
v -0.012134 0.002957 0.000008
v 0.000000 0.003832 -0.003058
v -0.012125 0.006789 -0.007052
v 0.000003 0.007930 -0.007634
v -0.012116 0.013251 -0.007971
v 0.000000 0.013519 -0.007915
v -0.012116 0.017738 -0.005425
v 0.000000 0.016987 -0.006004
v 0.000001 0.019764 -0.000805
v -0.012114 0.019636 0.001496
v 0.000000 0.018060 0.004792
v -0.012125 0.016390 0.006560
v 0.000000 0.013143 0.008204
v -0.012112 0.010723 0.008299
v 0.000000 0.007472 0.007159
v -0.012116 0.005832 0.006021
vn -0.0173 0.4273 -0.9039
vn 0.0029 0.4815 -0.8765
vn 0.0036 0.8563 -0.5164
vn -0.0402 0.9041 -0.4254
vn 0.0630 0.9502 0.3052
vn -0.0139 0.9010 0.4336
vn -0.0312 0.5024 0.8641
vn 0.0547 0.2311 0.9714
vn -0.0447 -0.0349 0.9984
vn 0.0438 -0.6084 0.7925
vn -0.0448 -0.7831 0.6202
vn 0.0259 -0.9422 0.3341
vn -0.0184 -0.9981 -0.0584
vn 0.0179 -0.9833 -0.1809
vn -0.0298 -0.8134 -0.5809
vn 0.0405 -0.6536 -0.7557
vn -0.0470 -0.2499 -0.9671
vn 0.0238 -0.0331 -0.9992
vn 1.0000 0.0002 -0.0002
vn 1.0000 -0.0001 0.0001
vn 1.0000 0.0001 0.0001
vn 1.0000 0.0000 0.0000
vn 1.0000 0.0001 0.0000
vn 0.9974 -0.0614 -0.0378
vn 1.0000 -0.0002 0.0003
vn 1.0000 -0.0001 0.0009
vn 0.0547 -0.9962 -0.0679
vn -0.0571 -0.8774 -0.4763
vn 0.0380 -0.7444 -0.6666
vn -0.0342 -0.1407 -0.9895
vn 0.0057 -0.0502 -0.9987
vn -0.0079 0.4915 -0.8708
vn -0.0069 0.4935 -0.8697
vn -0.0110 0.4849 -0.8745
vn -0.0119 0.4826 -0.8758
vn 0.0321 0.8816 -0.4709
vn -0.0603 0.9626 -0.2640
vn 0.0452 0.9557 0.2910
vn -0.0373 0.8413 0.5392
vn 0.0412 0.5696 0.8209
vn -0.0510 0.2929 0.9548
vn 0.0439 -0.1810 0.9825
vn -0.0280 -0.4220 0.9062
vn 0.0408 -0.7555 0.6539
vn -0.0514 -0.9009 0.4309
vn 1.0000 0.0006 0.0013
vn 1.0000 -0.0000 -0.0001
vn 1.0000 0.0001 0.0002
vn 1.0000 -0.0000 0.0001
vn 1.0000 -0.0001 0.0000
vn 1.0000 0.0006 0.0012
vn 0.9988 0.0457 -0.0163
usemtl M_DarkGrey
s 1
f 1//1 2//1 3//1
f 1//2 3//2 4//2
f 4//3 3//3 5//3
f 5//4 3//4 6//4
f 5//5 6//5 7//5
f 6//6 8//6 7//6
f 7//7 8//7 9//7
f 7//8 9//8 10//8
f 10//9 9//9 11//9
f 10//10 11//10 12//10
f 12//11 11//11 13//11
f 12//12 13//12 14//12
f 14//13 13//13 15//13
f 14//14 15//14 16//14
f 16//15 15//15 17//15
f 16//16 17//16 18//16
f 18//17 17//17 2//17
f 18//18 2//18 1//18
f 7//19 10//20 18//21
f 14//22 18//21 12//23
f 14//24 16//24 18//24
f 1//22 4//25 18//21
f 18//21 4//25 5//26
f 5//26 7//19 18//21
f 18//21 10//20 12//23
f 19//27 20//27 21//27
f 20//28 22//28 21//28
f 21//29 22//29 23//29
f 23//30 22//30 24//30
f 23//31 24//31 25//31
f 25//32 24//33 26//34
f 25//32 26//34 27//35
f 27//36 26//36 28//36
f 28//37 26//37 29//37
f 28//38 29//38 30//38
f 30//39 29//39 31//39
f 30//40 31//40 32//40
f 32//41 31//41 33//41
f 32//42 33//42 34//42
f 34//43 33//43 35//43
f 34//44 35//44 19//44
f 19//45 35//45 20//45
f 25//46 27//47 21//48
f 30//49 32//22 21//48
f 21//48 27//47 28//50
f 25//46 21//48 23//51
f 21//48 28//50 30//49
f 21//48 32//22 34//22
f 34//52 19//52 21//52
