<?xml version="1.0" standalone="no"?>
<!DOCTYPE svg PUBLIC "-//W3C//DTD SVG 20010904//EN"
 "http://www.w3.org/TR/2001/REC-SVG-20010904/DTD/svg10.dtd">
<svg version="1.0" xmlns="http://www.w3.org/2000/svg"
 width="2048.000000pt" height="758.000000pt" viewBox="0 0 2048.000000 758.000000"
 preserveAspectRatio="xMidYMid meet">

<g transform="translate(0.000000,758.000000) scale(0.100000,-0.100000)"
fill="#000000" stroke="none">
<path d="M5643 6810 c-71 -11 -168 -58 -228 -111 -117 -104 -706 -544 -1160
-868 -66 -47 -190 -137 -275 -201 -85 -64 -209 -154 -275 -201 -114 -80 -172
-123 -402 -301 -55 -43 -133 -96 -174 -120 -79 -45 -205 -159 -240 -214 -11
-19 -26 -31 -31 -28 -7 4 -8 2 -4 -4 4 -6 -3 -30 -15 -54 -61 -120 -83 -243
-68 -381 12 -107 37 -176 96 -275 40 -66 44 -77 38 -115 -4 -23 -31 -175 -61
-337 -61 -337 -168 -940 -220 -1235 -19 -110 -37 -210 -39 -223 l-5 -22 759 0
c418 0 761 3 763 7 2 5 1 332 -2 728 -3 396 -2 723 1 728 3 4 24 -16 48 -45
l42 -52 -2 -1236 c-2 -1147 -3 -1237 -19 -1260 -9 -14 -15 -31 -13 -37 6 -17
33 -17 33 0 0 7 5 18 10 23 7 7 10 197 10 567 0 526 1 557 17 557 13 0 14 3 5
8 -9 7 -12 141 -12 626 0 574 1 619 17 631 21 16 19 91 -3 116 -11 12 -14 49
-14 167 0 95 4 152 10 152 13 0 13 153 0 166 -5 5 -10 113 -11 249 l-1 240
103 82 c57 45 107 79 113 76 5 -3 6 -2 3 3 -3 6 19 30 50 54 30 25 94 79 142
120 49 41 131 112 183 156 l94 81 1689 6 1689 6 53 -39 c29 -22 54 -40 56 -40
2 0 44 39 91 88 48 48 82 76 76 63 -18 -36 -16 -138 4 -198 9 -28 35 -72 57
-97 141 -160 397 -125 498 69 l20 40 -6 -35 c-3 -19 -10 -43 -15 -53 -7 -14
-5 -22 8 -32 24 -17 285 -129 355 -152 l55 -18 44 -180 c24 -99 43 -183 42
-187 -1 -5 2 -8 7 -8 5 0 7 -8 5 -17 -3 -10 2 -49 10 -87 l14 -68 -30 -17
c-133 -72 -230 -157 -327 -284 -122 -161 -188 -344 -198 -553 -9 -189 29 -364
117 -534 22 -41 40 -79 40 -83 0 -5 -42 -68 -94 -140 -51 -73 -151 -215 -222
-317 -72 -102 -170 -241 -219 -310 -48 -69 -124 -177 -168 -240 -197 -284
-284 -380 -433 -481 -106 -71 -204 -114 -326 -144 l-103 -25 -1035 -5 c-569
-3 -1347 -5 -1728 -5 -513 0 -691 -3 -686 -11 5 -9 878 -10 3388 -4 1860 4
3838 7 4396 7 558 1 1074 5 1145 9 309 21 502 122 677 353 88 117 143 240 274
611 148 421 149 423 141 431 -4 4 -9 5 -11 3 -2 -2 -61 -168 -131 -369 -175
-504 -233 -620 -379 -765 -146 -144 -319 -224 -506 -232 l-105 -5 -480 172
c-492 176 -609 218 -870 314 -82 30 -265 95 -405 145 -412 147 -480 173 -480
181 0 4 44 122 99 261 54 140 124 319 154 399 l56 145 1 -185 0 -185 100 3
100 3 0 365 0 364 328 0 327 0 57 -83 c31 -45 91 -129 132 -187 41 -58 110
-154 152 -215 43 -60 101 -141 129 -180 l52 -70 117 3 117 3 -35 47 c-19 26
-124 173 -232 327 -109 154 -214 303 -235 331 l-38 51 42 13 c187 55 346 218
402 414 26 90 17 256 -20 356 -65 177 -192 298 -370 357 -74 24 -97 27 -292
31 -117 2 -213 7 -213 11 0 3 20 56 43 116 24 61 56 147 71 193 l28 82 39 0
c47 0 56 27 11 32 l-28 3 85 222 86 223 1517 0 1518 0 -36 -97 c-39 -106 -546
-1522 -597 -1666 -17 -48 -33 -87 -37 -87 -3 0 -55 107 -115 238 -60 130 -152
329 -205 442 -53 113 -105 224 -115 247 l-20 42 -86 1 -86 0 -95 -202 -94
-203 -403 -3 c-315 -2 -402 -5 -398 -15 3 -9 94 -13 390 -15 213 -1 387 -6
387 -10 -1 -4 -29 -68 -63 -142 l-63 -135 -85 -2 c-46 -1 -92 -2 -101 -2 -10
-1 -18 -6 -18 -12 0 -7 32 -9 95 -7 112 4 110 21 23 -162 -33 -69 -122 -267
-198 -440 -76 -173 -166 -375 -199 -448 l-60 -133 111 3 111 3 77 176 76 176
-23 34 c-43 63 -6 137 75 149 35 5 35 6 148 255 62 138 126 280 141 317 l28
68 120 0 c109 0 121 -2 133 -20 7 -11 18 -17 27 -14 8 3 13 10 10 14 -3 4 2
10 10 14 24 9 17 30 -22 67 -20 18 -33 29 -29 22 4 -7 4 -24 0 -38 -6 -25 -6
-25 -121 -25 -63 0 -113 4 -111 8 2 5 32 73 67 150 53 116 68 142 85 142 12 0
28 5 36 10 11 7 8 10 -16 10 l-32 0 31 75 c17 41 33 73 35 70 2 -2 19 -37 37
-77 18 -40 79 -174 135 -298 56 -124 130 -288 165 -365 35 -77 72 -160 84
-185 11 -25 21 -51 21 -57 0 -10 -82 -13 -379 -13 l-379 0 -36 -90 c-20 -50
-36 -92 -36 -95 0 -3 209 -6 466 -7 l465 -3 57 -126 c31 -69 79 -176 107 -237
l50 -112 107 0 c60 0 108 2 108 4 0 3 -21 49 -46 103 -127 270 -366 800 -366
813 -1 8 27 92 62 185 34 94 109 301 165 460 202 567 344 962 395 1100 72 193
103 281 227 650 l109 320 32 3 c18 2 32 8 32 14 0 6 -11 8 -25 6 -32 -7 -32 5
5 69 65 114 194 225 307 265 181 63 453 33 648 -71 78 -42 367 -225 700 -444
438 -288 801 -521 870 -558 73 -39 190 -79 231 -79 13 0 24 -3 24 -7 0 -9
-2877 -7 -2953 1 -43 5 -46 4 -32 -10 13 -14 192 -15 1636 -12 891 2 1623 6
1625 9 2 3 -61 11 -139 17 -163 13 -274 38 -367 85 -65 33 -235 140 -575 362
-651 426 -921 599 -1000 641 -96 51 -183 81 -289 100 -67 11 -197 12 -810 4
-402 -5 -1084 -10 -1516 -10 -833 0 -891 -3 -1040 -49 -204 -63 -386 -257
-485 -516 -19 -49 -78 -207 -131 -350 -53 -143 -98 -264 -100 -270 -3 -7 -190
-9 -541 -7 -296 1 -544 0 -553 -3 -10 -4 -11 -8 -3 -13 6 -4 251 -9 545 -11
293 -2 534 -4 535 -5 0 0 -16 -44 -37 -96 -20 -52 -58 -150 -84 -217 -46 -118
-49 -123 -77 -123 -33 0 -39 -22 -10 -36 19 -9 16 -20 -52 -199 l-72 -190
-297 -3 -298 -2 0 -755 0 -755 -124 -317 c-68 -175 -140 -363 -160 -418 -20
-55 -40 -106 -45 -113 -6 -10 -66 7 -264 74 l-257 86 -98 -42 c-53 -23 -180
-77 -282 -120 -102 -43 -259 -110 -350 -150 -445 -194 -1248 -538 -1445 -618
l-160 -65 -120 -3 -120 -4 84 25 c222 67 408 212 586 454 78 107 294 413 511
726 50 72 139 200 199 286 l109 156 39 -49 c126 -159 309 -281 497 -330 125
-33 386 -33 514 0 171 43 349 147 442 259 61 73 62 68 -16 118 -38 25 -74 45
-78 45 -5 0 -24 -16 -43 -36 -86 -91 -243 -176 -385 -210 -101 -24 -269 -22
-367 5 -180 49 -341 169 -444 329 l-35 53 51 72 c28 40 75 108 105 152 31 44
87 125 126 180 39 55 95 135 123 178 l52 78 339 -3 c264 -2 340 0 344 10 3 10
-60 12 -290 12 -161 0 -310 0 -330 0 -21 0 -38 4 -38 9 0 5 20 36 45 70 l45
62 163 -6 c95 -3 168 -1 177 4 25 17 -4 21 -169 23 l-153 3 122 170 c119 166
123 170 156 168 78 -5 301 -123 312 -165 2 -10 10 -18 16 -18 7 0 23 -11 36
-25 13 -14 27 -25 32 -25 6 0 63 35 157 97 2 1 -21 31 -52 66 -42 49 -53 67
-44 76 8 8 5 11 -13 9 -15 -1 -53 18 -95 46 -61 40 -206 106 -234 106 -26 0
-16 25 46 111 422 596 515 730 510 736 -3 2 -27 -26 -53 -64 -26 -37 -91 -129
-144 -203 -135 -189 -330 -466 -368 -522 l-32 -46 -37 11 c-23 7 -111 12 -219
12 l-182 0 -17 105 c-10 58 -37 207 -60 332 -37 201 -44 229 -66 247 -13 11
-84 54 -156 96 -73 42 -133 78 -133 78 0 1 325 2 722 2 568 0 722 3 726 13 3
9 -152 12 -752 12 l-756 0 -102 51 c-79 39 -103 48 -109 37 -5 -7 -9 -17 -9
-21 0 -5 -8 -34 -17 -65 l-17 -57 -8 44 c-17 97 -88 190 -178 233 -53 26 -163
36 -211 19 -18 -6 -34 -9 -37 -6 -2 2 23 33 57 68 l61 63 -148 125 c-320 270
-608 499 -627 499 -7 0 -25 -18 -40 -40 -15 -22 -28 -40 -29 -40 -1 0 -2 35
-2 78 -1 156 -91 284 -242 346 -36 14 -74 19 -162 20 -96 2 -147 9 -305 44
-104 24 -332 72 -505 107 -763 155 -795 162 -851 193 -86 48 -189 67 -286 52z
m234 -64 c41 -19 80 -47 113 -82 194 -205 136 -521 -117 -646 -64 -31 -74 -33
-173 -33 -93 0 -112 3 -162 27 -80 37 -152 107 -191 187 -30 62 -32 72 -32
176 0 101 2 115 29 170 51 104 165 199 270 226 17 4 69 7 116 5 68 -2 97 -8
147 -30z m245 -81 c40 -8 82 -17 94 -20 21 -5 21 -7 9 -77 -75 -450 -118 -704
-120 -706 -4 -5 -367 38 -428 51 -32 7 -59 16 -60 21 -1 5 27 8 64 7 176 -6
343 96 420 256 64 133 48 327 -36 437 -19 25 -31 46 -26 46 6 0 43 -7 83 -15z
m368 -186 c107 -69 210 -141 228 -158 36 -35 68 -38 86 -8 17 27 -4 51 -49 55
-28 3 -81 32 -216 123 -161 107 -206 141 -165 126 18 -7 154 -36 571 -121
l350 -72 -1 -30 c-1 -16 -4 -58 -8 -94 l-7 -65 -412 -129 c-227 -71 -481 -153
-564 -182 -128 -43 -153 -49 -153 -36 0 10 21 136 46 282 25 146 49 292 55
325 19 122 20 126 32 118 7 -4 100 -64 207 -134z m-1197 44 c-9 -21 -19 -77
-22 -125 l-6 -87 -54 66 c-47 58 -51 67 -38 80 25 25 121 102 129 102 4 1 0
-16 -9 -36z m-85 -196 c38 -45 84 -108 102 -140 40 -71 104 -144 167 -188 26
-18 88 -76 138 -129 l90 -95 -60 -8 c-66 -9 -87 -13 -803 -151 -271 -53 -497
-96 -503 -96 -18 0 -30 -14 487 558 126 140 244 271 263 293 18 21 37 39 41
39 4 0 39 -37 78 -83z m2235 66 c15 -4 10 -10 -25 -33 -24 -16 -55 -38 -70
-50 l-27 -21 5 38 c12 87 10 85 57 78 23 -4 50 -9 60 -12z m320 -41 c66 -29
138 -101 170 -172 16 -34 21 -66 22 -130 0 -73 -4 -93 -28 -142 -33 -68 -100
-130 -177 -167 -79 -37 -193 -36 -265 1 -68 35 -128 97 -162 166 -23 49 -27
70 -27 142 0 73 4 92 27 138 57 109 145 175 254 191 74 11 114 5 186 -27z
m-2769 -34 c-11 -13 -79 -88 -150 -168 -148 -165 -261 -292 -447 -502 -90
-102 -136 -148 -151 -148 -11 0 -131 -22 -266 -49 -135 -27 -246 -48 -248 -46
-1 1 17 15 40 30 24 15 120 85 213 155 94 69 264 193 378 276 115 82 306 222
425 311 120 89 219 162 221 163 3 0 -4 -10 -15 -22z m10795 -100 c-84 -41
-212 -168 -263 -260 l-37 -68 -834 0 c-550 0 -835 -3 -835 -10 0 -7 283 -10
830 -10 457 0 830 -2 830 -5 0 -5 -161 -482 -227 -672 l-25 -73 -30 16 c-16 8
-32 13 -34 11 -3 -2 9 -10 26 -17 30 -12 35 -24 24 -54 -6 -15 -149 -16 -1520
-16 -835 0 -1514 4 -1514 9 0 4 24 73 54 152 30 79 85 225 122 324 37 99 78
203 92 230 77 154 218 307 338 366 56 28 80 34 132 34 56 0 60 1 37 11 -26 10
-24 11 31 22 106 20 168 21 1449 27 698 4 1272 8 1274 11 2 2 36 4 74 4 l70 0
-64 -32z m-8519 -30 c0 -3 -58 -346 -67 -397 l-6 -34 -66 7 c-36 3 -142 13
-236 21 -288 26 -679 66 -683 69 -4 4 265 94 543 181 99 31 248 79 330 105
131 43 185 56 185 48z m808 -245 c26 -98 255 -859 264 -876 16 -31 2 -30 -33
1 -19 16 -160 127 -314 247 -154 119 -286 223 -294 230 -17 17 10 53 149 201
52 56 120 133 150 172 30 39 57 71 60 72 3 0 11 -21 18 -47z m142 -49 c370
-300 560 -458 560 -467 0 -9 -48 -63 -175 -197 -44 -47 -109 -116 -144 -153
-35 -37 -65 -66 -68 -64 -2 2 -5 14 -8 25 -2 12 -35 124 -74 249 -76 250 -199
656 -208 688 -5 19 -4 19 13 4 11 -9 57 -47 104 -85z m-920 -15 c14 -28 43
-71 66 -96 l43 -45 -82 7 c-45 4 -84 9 -86 11 -7 7 20 174 28 174 4 0 18 -23
31 -51z m-1532 -15 c28 -4 52 -10 52 -14 0 -4 -16 -20 -36 -35 l-36 -28 -41
42 c-40 39 -41 41 -17 41 14 0 49 -3 78 -6z m452 -49 c140 -14 397 -38 570
-55 173 -16 416 -39 540 -52 124 -12 267 -22 318 -23 50 0 92 -2 92 -4 0 -2
-22 -29 -50 -61 -27 -32 -50 -62 -49 -66 0 -5 44 -43 97 -85 53 -41 191 -149
307 -240 l209 -164 -821 -3 c-452 -1 -1194 -1 -1648 0 l-827 3 113 95 c62 52
226 192 364 310 490 418 443 383 489 376 23 -3 156 -17 296 -31z m-540 -89
c-17 -16 -358 -307 -608 -519 l-174 -147 -196 0 c-108 0 -325 -3 -482 -6
l-285 -6 -125 142 c-69 78 -128 148 -133 155 -5 10 2 16 30 20 21 4 117 22
213 41 96 18 236 45 310 58 220 41 282 53 790 151 484 94 632 122 660 124 13
1 13 -1 0 -13z m-1917 -536 l120 -135 -113 -3 -112 -3 -111 59 c-61 32 -112
63 -114 68 -3 13 179 153 197 151 8 -1 68 -63 133 -137z m5210 52 c152 -82
181 -291 59 -413 -47 -47 -121 -79 -182 -79 -53 0 -127 30 -172 70 -62 54 -91
117 -91 200 0 199 208 319 386 222z m-5422 -151 c24 -15 17 -16 -117 -16 -78
0 -142 1 -141 1 1 1 29 22 62 47 l60 45 55 -31 c30 -17 67 -38 81 -46z m5898
-92 c257 -133 235 -120 224 -128 -5 -3 -42 -46 -82 -96 -41 -49 -75 -92 -77
-94 -3 -3 -338 134 -352 144 -5 4 61 285 66 285 3 0 102 -50 221 -111z m-5804
7 c194 -62 337 -207 406 -411 20 -58 24 -89 23 -185 0 -128 -16 -200 -60 -277
-32 -56 -103 -150 -131 -176 -19 -17 -21 -16 -68 44 l-48 61 39 41 c22 23 40
43 41 46 3 5 53 -28 83 -56 24 -22 40 -29 40 -17 0 9 -28 34 -37 34 -5 0 -24
12 -42 28 l-33 27 27 80 c24 71 27 91 23 185 -3 93 -7 113 -35 172 -53 113
-150 203 -268 248 -48 19 -80 23 -160 24 -99 0 -105 -1 -216 -48 -12 -5 -28 8
-60 53 -24 33 -47 61 -51 61 -4 0 12 -28 36 -62 l43 -61 -79 -79 -80 -78 -41
25 c-23 14 -53 33 -66 44 l-24 19 32 41 c92 116 230 207 361 236 96 22 244 14
345 -19z m1194 9 c-8 -7 -110 -94 -228 -193 l-214 -180 -26 16 c-26 16 -26 16
-8 -5 18 -20 17 -21 -9 -42 -15 -11 -29 -21 -33 -21 -6 1 -125 144 -151 183
-14 21 -14 21 5 6 24 -19 45 -32 45 -26 0 2 -21 18 -47 37 -27 18 -57 43 -68
55 -40 44 -145 175 -145 180 0 5 881 12 889 7 3 -1 -2 -9 -10 -17z m-912 -9
c10 -13 72 -88 139 -167 66 -79 144 -173 172 -209 l53 -65 -28 -23 c-15 -13
-54 -46 -85 -73 l-58 -50 0 40 c0 192 -162 448 -345 545 l-50 26 92 0 c84 0
93 -2 110 -24z m5772 -242 c-63 -58 -107 -89 -115 -82 -2 3 23 42 56 86 l61
80 28 -15 27 -16 -57 -53z m-6067 24 c92 -46 157 -112 201 -206 30 -63 32 -74
32 -177 0 -99 -3 -116 -27 -168 -15 -32 -31 -57 -35 -54 -5 2 -59 34 -121 72
-106 64 -118 74 -191 169 -42 56 -106 143 -140 194 -35 51 -68 95 -74 99 -6 4
-7 1 -2 -8 16 -28 189 -275 217 -311 16 -21 25 -38 19 -38 -5 0 -12 4 -15 9
-9 14 -249 164 -263 164 -7 0 -13 4 -13 8 0 4 -24 21 -54 38 -79 46 -83 53
-51 96 15 19 46 49 68 65 l41 30 24 -23 25 -22 -18 28 -17 27 43 19 c24 10 51
21 59 25 8 3 60 4 116 3 94 -2 106 -5 176 -39z m6140 -88 c3 -34 2 -35 -36
-38 -22 -2 -50 -1 -63 3 -23 5 -21 8 29 49 57 47 64 45 70 -14z m-6852 22 c0
-4 27 -24 60 -43 33 -18 58 -36 57 -39 -73 -129 -80 -298 -18 -435 43 -93 135
-184 238 -233 76 -36 81 -37 188 -36 101 1 115 3 175 31 36 17 80 42 99 56
l33 26 49 -57 c27 -31 49 -59 49 -62 0 -13 -103 -82 -163 -110 -86 -39 -138
-50 -244 -51 -145 -1 -259 38 -390 134 -108 80 -183 195 -224 344 -38 139 -12
355 55 458 16 24 36 33 36 17z m6863 -100 c3 -4 17 -75 32 -157 14 -83 30
-170 36 -194 5 -24 8 -45 7 -47 -2 -1 -30 10 -63 27 -34 16 -78 30 -102 31
-34 1 -43 5 -43 19 0 10 -15 78 -34 151 -19 73 -36 139 -37 147 -3 11 14 15
81 18 47 3 87 6 89 9 7 7 29 5 34 -4z m-6645 -41 c31 -22 113 -74 182 -116
226 -140 226 -140 317 -263 l84 -114 -21 -23 c-60 -64 -204 -103 -317 -85
-221 35 -376 230 -361 454 5 62 41 186 54 186 3 0 31 -18 62 -39z m1052 -391
c0 -121 -2 -220 -5 -220 -15 0 -145 95 -145 105 0 7 11 38 25 68 14 31 34 96
43 144 12 61 23 93 37 105 44 37 45 31 45 -202z m-401 -26 c5 -4 -39 -64 -48
-64 -7 0 -131 163 -131 174 0 5 162 -95 179 -110z m6001 45 l53 -23 -73 -33
c-40 -18 -74 -32 -75 -31 -8 11 -25 76 -25 96 0 22 3 24 34 19 18 -3 57 -16
86 -28z m-5690 -215 l87 -67 1 -191 c0 -105 -2 -194 -5 -199 -3 -5 -38 40 -77
100 -39 60 -81 119 -93 133 -13 13 -25 32 -29 42 -3 10 -11 18 -17 18 -7 0
-25 18 -40 40 l-28 40 51 75 c28 41 53 75 57 75 3 0 45 -30 93 -66z m6117 -8
c3 -3 -30 -54 -74 -113 -44 -59 -101 -138 -128 -175 l-49 -68 -68 0 c-39 0
-68 -4 -68 -10 0 -5 19 -10 43 -10 23 0 49 -5 57 -10 12 -8 11 -12 -6 -32 -12
-13 -55 -72 -96 -133 -41 -60 -111 -162 -155 -225 -43 -63 -124 -180 -178
-259 -112 -163 -106 -161 -149 -32 -58 177 -57 351 4 533 45 135 98 218 209
329 81 80 111 103 191 143 71 35 114 50 170 57 41 6 77 13 80 16 6 7 210 -4
217 -11z m1513 -25 c0 -27 -296 -788 -311 -797 -5 -3 -9 157 -9 400 l0 406
160 0 c88 0 160 -4 160 -9z m456 0 c199 -38 339 -181 352 -361 3 -41 1 -70 -5
-70 -18 0 -108 34 -141 53 -32 19 -50 18 -38 -1 3 -5 46 -24 95 -42 l89 -32
-15 -51 c-24 -82 -52 -128 -113 -188 -40 -39 -78 -65 -126 -85 l-69 -29 -387
-3 c-214 -2 -388 -2 -388 1 0 2 27 69 61 148 64 152 249 641 249 659 0 13 367
14 436 1z m-9170 -81 c58 -49 187 -115 263 -135 48 -12 97 -16 190 -13 115 3
133 6 205 36 44 18 108 53 142 77 l63 45 36 -48 c117 -152 145 -191 145 -195
0 -3 -238 -6 -530 -7 l-530 -1 -41 88 c-35 77 -40 94 -34 136 3 26 8 54 12 62
6 17 7 17 79 -45z m-46 -232 c0 -5 -18 -8 -40 -8 -45 0 -46 2 -28 82 l11 53
28 -60 c15 -33 28 -63 29 -67z m27 -67 c10 -26 289 -662 349 -792 30 -66 52
-124 49 -129 -3 -5 -62 -56 -131 -114 l-126 -106 -227 0 c-125 0 -230 2 -233
5 -5 5 28 190 39 215 3 8 5 21 4 27 -1 7 12 88 28 180 17 93 53 293 81 446 27
153 52 281 54 285 2 4 27 5 56 3 37 -2 53 -8 57 -20z m1066 -503 c3 -288 6
-612 6 -720 l1 -197 -53 -5 c-28 -3 -121 -5 -204 -3 l-153 2 -26 60 c-54 127
-198 442 -224 495 -15 30 -69 150 -120 265 -51 116 -133 300 -181 410 -49 109
-89 203 -89 207 0 4 233 8 519 8 l518 0 6 -522z m-588 -575 c32 -71 80 -175
107 -232 27 -57 47 -105 46 -106 -7 -6 -999 -12 -1002 -6 -2 3 6 61 18 129
l20 122 246 0 245 1 125 109 c69 60 128 109 131 109 3 1 32 -56 64 -126z
m7131 -657 c135 -46 248 -86 251 -89 8 -9 -89 -206 -139 -284 -150 -230 -369
-392 -623 -459 -113 -31 -141 -31 -1375 -36 l-595 -3 150 61 c82 34 283 118
445 188 162 70 374 161 470 202 96 42 256 111 355 155 145 63 803 345 813 348
1 1 113 -37 248 -83z m474 -162 c189 -67 542 -194 665 -239 50 -19 187 -68
305 -111 118 -42 287 -102 375 -134 88 -32 257 -92 375 -135 118 -42 217 -79
219 -81 2 -2 -668 -4 -1490 -4 l-1494 1 92 24 c220 57 411 193 573 410 59 78
152 252 166 308 8 35 1 36 214 -39z"/>
<path d="M5620 6681 c-80 -25 -154 -91 -196 -177 -61 -125 -24 -286 87 -374
63 -50 108 -65 194 -64 193 1 342 180 305 368 -16 79 -32 111 -88 169 -58 59
-128 87 -215 86 -34 0 -73 -4 -87 -8z m206 -52 c162 -76 204 -303 81 -436 -51
-55 -104 -83 -172 -90 -114 -12 -217 41 -270 138 -25 46 -29 65 -29 129 -1
105 38 174 137 250 56 42 173 46 253 9z"/>
<path d="M7560 6301 c-121 -37 -211 -165 -197 -282 27 -226 303 -322 453 -157
107 118 97 288 -23 387 -63 52 -161 74 -233 52z m168 -57 c188 -94 155 -370
-51 -425 -169 -46 -331 147 -258 306 60 132 186 180 309 119z"/>
<path d="M12998 6163 c7 -3 16 -2 19 1 4 3 -2 6 -13 5 -11 0 -14 -3 -6 -6z"/>
<path d="M13060 6145 c46 -18 64 -17 25 0 -16 8 -37 14 -45 14 -8 0 1 -7 20
-14z"/>
<path d="M13500 5955 c14 -8 30 -14 35 -14 6 0 -1 6 -15 14 -14 8 -29 14 -35
14 -5 0 1 -6 15 -14z"/>
<path d="M13550 5935 c0 -7 61 -37 66 -33 2 3 -12 12 -31 21 -19 9 -35 15 -35
12z"/>
<path d="M13635 5891 c6 -5 42 -24 80 -41 39 -17 66 -27 60 -21 -5 5 -41 24
-80 41 -38 17 -65 27 -60 21z"/>
<path d="M13800 5816 c0 -3 14 -12 30 -21 17 -9 30 -13 30 -11 0 3 -13 12 -30
21 -16 9 -30 13 -30 11z"/>
<path d="M13880 5770 c8 -5 20 -10 25 -10 6 0 3 5 -5 10 -8 5 -19 10 -25 10
-5 0 -3 -5 5 -10z"/>
<path d="M13980 5720 c8 -5 20 -10 25 -10 6 0 3 5 -5 10 -8 5 -19 10 -25 10
-5 0 -3 -5 5 -10z"/>
<path d="M14137 5649 c7 -7 15 -10 18 -7 3 3 -2 9 -12 12 -14 6 -15 5 -6 -5z"/>
<path d="M14340 5545 c25 -13 50 -24 55 -24 6 0 -10 11 -35 24 -25 13 -49 24
-55 24 -5 0 10 -11 35 -24z"/>
<path d="M14417 5509 c7 -7 15 -10 18 -7 3 3 -2 9 -12 12 -14 6 -15 5 -6 -5z"/>
<path d="M14457 5489 c7 -7 15 -10 18 -7 3 3 -2 9 -12 12 -14 6 -15 5 -6 -5z"/>
<path d="M14610 5415 c58 -30 110 -54 115 -54 6 0 -37 24 -95 54 -58 30 -109
54 -115 54 -5 0 37 -24 95 -54z"/>
<path d="M14787 5329 c7 -7 15 -10 18 -7 3 3 -2 9 -12 12 -14 6 -15 5 -6 -5z"/>
<path d="M14987 5229 c7 -7 15 -10 18 -7 3 3 -2 9 -12 12 -14 6 -15 5 -6 -5z"/>
<path d="M15080 5186 c0 -2 7 -7 16 -10 8 -3 12 -2 9 4 -6 10 -25 14 -25 6z"/>
<path d="M8815 5225 c-5 -2 -23 -6 -38 -9 -48 -11 -115 -82 -132 -139 -54
-182 145 -339 308 -244 129 76 141 242 24 342 -43 37 -125 62 -162 50z m112
-56 c65 -31 97 -91 91 -170 -5 -71 -27 -105 -89 -137 -54 -29 -135 -26 -177 5
-64 47 -93 126 -73 194 13 43 63 106 95 119 38 16 109 11 153 -11z"/>
<path d="M4230 4747 c0 -3 12 -12 26 -22 15 -9 23 -12 20 -6 -7 11 -46 35 -46
28z"/>
<path d="M4290 4707 c0 -3 12 -12 26 -22 15 -9 23 -12 20 -6 -7 11 -46 35 -46
28z"/>
<path d="M8501 4693 c-13 -71 -36 -191 -51 -269 -15 -77 -31 -165 -35 -196
l-7 -55 174 -178 c187 -192 454 -445 469 -445 15 0 24 33 11 38 -7 2 -42 29
-77 60 l-65 55 53 30 c28 17 63 38 76 48 23 19 23 18 79 -31 50 -44 58 -48 71
-35 8 8 13 16 10 18 -151 129 -240 185 -189 120 l21 -27 -23 -18 c-13 -10 -40
-27 -60 -38 l-37 -20 -7 56 c-8 67 12 99 58 90 37 -7 38 19 2 54 -38 38 -159
187 -201 248 -26 36 -34 55 -26 60 7 4 35 75 64 157 28 83 58 162 65 177 8 15
14 33 14 41 0 8 -74 49 -180 100 -99 48 -182 87 -183 87 -2 0 -13 -57 -26
-127z m234 -12 c60 -29 111 -54 113 -56 2 -2 -2 -14 -9 -27 -7 -12 -34 -84
-60 -158 -40 -117 -50 -135 -68 -134 -12 0 -72 1 -135 2 l-114 2 9 33 c5 18
22 109 39 202 17 94 33 182 36 197 l5 26 37 -17 c20 -10 86 -41 147 -70z m-17
-420 c13 -8 -155 -80 -222 -95 -43 -10 -58 22 -36 78 9 26 10 26 127 26 65 0
124 -4 131 -9z m42 -106 c22 -30 71 -89 108 -131 l68 -76 -27 -29 c-32 -34
-41 -72 -29 -125 5 -21 10 -43 10 -49 0 -5 -70 60 -155 145 -85 85 -155 159
-155 163 0 7 131 156 137 157 1 0 21 -25 43 -55z m-175 -33 c-36 -34 -42 -36
-58 -23 -9 8 -15 17 -11 20 5 5 91 38 104 40 3 1 -13 -16 -35 -37z"/>
<path d="M12104 4588 c-11 -17 9 -28 52 -28 32 0 44 4 44 15 0 8 -8 16 -17 16
-60 5 -75 4 -79 -3z"/>
<path d="M12260 4575 c0 -12 12 -15 55 -14 39 2 55 6 55 16 0 9 -16 13 -55 13
-43 0 -55 -3 -55 -15z"/>
<path d="M12405 4580 c-9 -14 -6 -17 20 -22 13 -2 20 3 20 12 0 18 -30 26 -40
10z"/>
<path d="M11760 4571 c-26 -17 2 -29 50 -22 25 3 45 11 45 16 0 13 -76 18 -95
6z"/>
<path d="M11638 4557 c-38 -7 -48 -13 -48 -29 0 -14 5 -18 16 -14 9 3 33 9 55
12 22 4 39 12 39 20 0 19 -10 21 -62 11z"/>
<path d="M11480 4513 c-8 -3 -26 -10 -39 -15 -16 -6 -21 -12 -14 -19 13 -13
105 11 100 26 -4 12 -26 16 -47 8z"/>
<path d="M11313 4454 c-34 -15 -49 -53 -15 -39 9 4 29 12 45 17 15 5 27 16 27
24 0 17 -15 17 -57 -2z"/>
<path d="M11168 4388 c-21 -12 -38 -28 -38 -35 0 -17 2 -17 54 9 28 13 42 26
39 35 -7 17 -11 17 -55 -9z"/>
<path d="M11013 4294 c-34 -26 -42 -44 -21 -44 19 0 88 52 82 61 -9 15 -28 10
-61 -17z"/>
<path d="M10887 4192 c-30 -31 -33 -42 -14 -42 14 0 67 50 67 63 0 16 -28 5
-53 -21z"/>
<path d="M5860 3193 l0 -968 100 3 100 3 0 339 0 338 353 4 c321 5 359 7 431
27 301 81 469 298 469 606 0 183 -52 314 -173 435 -88 89 -168 131 -299 160
-77 18 -131 20 -533 20 l-448 0 0 -967z m951 760 c127 -38 212 -106 261 -210
80 -168 54 -371 -64 -499 -53 -58 -98 -87 -180 -116 -60 -21 -81 -22 -415 -26
l-353 -4 0 440 0 439 343 -2 c308 -2 349 -4 408 -22z"/>
<path d="M13518 4127 l-3 -32 -387 -3 c-336 -2 -388 -4 -388 -17 0 -13 51 -15
389 -15 l390 0 3 -24 3 -25 53 32 c28 18 52 34 52 37 0 3 -24 22 -54 42 l-55
37 -3 -32z"/>
<path d="M15270 3189 c0 -881 1 -971 16 -965 9 3 51 6 95 6 l79 0 0 778 0 777
71 -130 c40 -71 104 -188 144 -260 39 -71 108 -195 152 -275 44 -80 135 -245
203 -367 l123 -223 63 0 62 0 153 283 c84 155 218 401 299 547 81 146 164 298
186 337 21 40 41 73 44 73 3 0 4 -346 2 -770 l-3 -770 95 0 94 0 4 73 c6 123
8 1718 2 1790 l-6 67 -93 0 -93 0 -69 -127 c-38 -71 -142 -259 -231 -420 -181
-328 -352 -644 -407 -752 l-36 -73 -63 113 c-103 186 -451 818 -576 1044
l-115 210 -98 3 -97 3 0 -972z"/>
<path d="M10766 4076 c-17 -23 -22 -37 -15 -42 13 -7 81 55 73 68 -11 17 -32
7 -58 -26z"/>
<path d="M10550 3743 c0 -5 -11 -21 -25 -37 -14 -16 -24 -34 -22 -39 5 -16 22
-10 33 12 7 13 17 28 23 34 14 14 14 37 1 37 -5 0 -10 -3 -10 -7z"/>
<path d="M8624 3558 c-36 -96 -186 -484 -279 -723 -41 -104 -94 -240 -117
-302 l-43 -112 -72 177 c-81 199 -203 492 -298 717 -34 83 -77 185 -95 228
l-32 77 -99 0 c-54 0 -99 -4 -99 -9 0 -13 214 -523 331 -786 212 -482 251
-573 256 -596 7 -36 -52 -173 -95 -222 -52 -57 -85 -71 -172 -71 -61 -1 -85 4
-133 26 -31 15 -60 28 -64 28 -4 1 -73 -145 -73 -155 0 -1 26 -14 58 -28 236
-106 473 -30 589 189 17 33 49 104 71 159 22 55 65 159 95 230 120 284 369
889 432 1050 37 94 69 176 72 183 4 9 -20 12 -100 12 l-105 0 -28 -72z"/>
<path d="M10330 3596 c0 -8 5 -18 10 -21 6 -3 10 3 10 14 0 12 -4 21 -10 21
-5 0 -10 -6 -10 -14z"/>
<path d="M10462 3598 c-16 -16 -15 -38 2 -38 17 0 30 30 18 42 -4 4 -13 3 -20
-4z"/>
<path d="M12770 3470 c0 -9 39 -19 92 -23 33 -2 38 16 6 25 -36 10 -98 9 -98
-2z"/>
<path d="M12970 3447 c0 -15 40 -27 91 -27 19 0 29 5 29 15 0 11 -11 15 -37
15 -21 0 -48 3 -60 6 -16 5 -23 2 -23 -9z"/>
<path d="M13162 3428 c3 -8 26 -14 62 -16 44 -2 57 0 54 10 -3 8 -26 14 -62
16 -44 2 -57 0 -54 -10z"/>
<path d="M9850 3308 c0 -9 14 -13 40 -12 22 1 109 3 193 4 199 3 146 17 -70
19 -124 1 -163 -2 -163 -11z"/>
<path d="M10291 3181 c-12 -21 -4 -81 10 -81 5 0 9 5 9 10 0 6 6 10 13 10 8 0
29 8 48 17 l34 17 -36 11 c-20 5 -43 16 -52 23 -13 11 -17 10 -26 -7z"/>
<path d="M9850 3160 c0 -6 75 -10 204 -10 126 0 207 4 211 10 4 7 -67 10 -204
10 -134 0 -211 -4 -211 -10z"/>
</g>
</svg>
